<?xml version="1.0" encoding="UTF-8" standalone="no" ?>
<!DOCTYPE svg PUBLIC "-//W3C//DTD SVG 1.1//EN" "http://www.w3.org/Graphics/SVG/1.1/DTD/svg11.dtd">
<svg xmlns="http://www.w3.org/2000/svg" xmlns:xlink="http://www.w3.org/1999/xlink" version="1.1" width="1280" height="1024" viewBox="0 0 1280 1024" xml:space="preserve">
<desc>Created with Fabric.js 5.3.0</desc>
<defs>
</defs>
<g transform="matrix(1 0 0 1 640 512)" id="background-logo"  >
<rect style="stroke: none; stroke-width: 0; stroke-dasharray: none; stroke-linecap: butt; stroke-dashoffset: 0; stroke-linejoin: miter; stroke-miterlimit: 4; fill: rgb(0,0,0); fill-rule: nonzero; opacity: 1;"  paint-order="stroke"  x="-640" y="-512" rx="0" ry="0" width="1280" height="1024" />
</g>
<g transform="matrix(0.3441443732872628 1.8900785039057064 -1.8900785039057064 0.3441443732872628 569.852442094056 643.4419539841736)" id="text-logo-0"  >
<g style=""  paint-order="stroke"   >
		<g transform="matrix(1 0 0 1 0 0)" id="190bdaae-7061-4e14-aaee-59cfd8430d37-path-0"  >
<path style="stroke: rgb(255,255,255); stroke-width: 0; stroke-dasharray: none; stroke-linecap: butt; stroke-dashoffset: 0; stroke-linejoin: miter; stroke-miterlimit: 4; fill: rgb(255,255,255); fill-rule: nonzero; opacity: 1;"  paint-order="stroke"  transform=" translate(-4.705, 4.71)" d="M 4.25 -3.03 L 5.95 0 L 8.56 0 L 6.6 -3.55 C 7.5 -4.14 8.03 -5.15 8.03 -6.22 C 8.03 -8 6.61 -9.42 4.85 -9.42 L 0.85 -9.42 L 0.85 0 L 3.15 0 L 3.15 -3.03 Z M 3.15 -5.2 L 3.15 -7.24 L 4.85 -7.24 C 5.42 -7.24 5.87 -6.8 5.87 -6.22 C 5.87 -5.67 5.4 -5.2 4.85 -5.2 Z" stroke-linecap="round" />
</g>
</g>
</g>
<g transform="matrix(1.0103127494844757 1.6340441391898917 -1.6340441391898919 1.0103127494844757 579.115547254509 667.4679624032892)" id="text-logo-1"  >
<g style=""  paint-order="stroke"   >
		<g transform="matrix(1 0 0 1 0 -4.4409e-16)" id="5a04dfd5-3295-4b7b-9e49-a921aea5448d-path-0"  >
<path style="stroke: rgb(255,255,255); stroke-width: 0; stroke-dasharray: none; stroke-linecap: butt; stroke-dashoffset: 0; stroke-linejoin: miter; stroke-miterlimit: 4; fill: rgb(255,255,255); fill-rule: nonzero; opacity: 1;"  paint-order="stroke"  transform=" translate(-5.295000000000001, 4.66)" d="M 5.3 0.19 C 8 0.19 10.15 -2 10.15 -4.67 C 10.15 -7.38 7.99 -9.51 5.3 -9.51 C 2.6 -9.51 0.44 -7.34 0.44 -4.67 C 0.44 -2.01 2.62 0.19 5.3 0.19 Z M 2.73 -4.67 C 2.73 -6.07 3.91 -7.23 5.3 -7.23 C 6.72 -7.23 7.85 -6.07 7.85 -4.67 C 7.85 -3.26 6.72 -2.11 5.3 -2.11 C 3.9 -2.11 2.73 -3.28 2.73 -4.67 Z" stroke-linecap="round" />
</g>
</g>
</g>
<g transform="matrix(1.5187003958666592 1.1765973007729407 -1.1765973007729407 1.5187003958666594 596.096065855139 686.1997087690079)" id="text-logo-2"  >
<g style=""  paint-order="stroke"   >
		<g transform="matrix(1 0 0 1 0 0)" id="a50ce5ff-d00a-4e1a-bc6e-effb2327e870-path-0"  >
<path style="stroke: rgb(255,255,255); stroke-width: 0; stroke-dasharray: none; stroke-linecap: butt; stroke-dashoffset: 0; stroke-linejoin: miter; stroke-miterlimit: 4; fill: rgb(255,255,255); fill-rule: nonzero; opacity: 1;"  paint-order="stroke"  transform=" translate(-3.96, 4.705)" d="M 4.1 0.19 C 5.85 0.19 7.55 -0.78 7.55 -2.67 C 7.55 -4.53 6.09 -5.3 4.5 -5.78 C 4.08 -5.92 3.76 -6.04 3.55 -6.14 C 3.26 -6.28 3.06 -6.43 3.06 -6.77 C 3.06 -7.17 3.57 -7.33 3.88 -7.33 C 4.63 -7.33 5 -6.99 5.31 -6.35 L 7.27 -7.49 C 6.6 -8.88 5.42 -9.6 3.88 -9.6 C 2.2 -9.6 0.77 -8.51 0.77 -6.77 C 0.77 -5 2.04 -4.3 3.57 -3.84 C 4.05 -3.7 4.39 -3.58 4.63 -3.48 C 4.94 -3.36 5.26 -3.19 5.26 -2.81 C 5.26 -2.3 4.57 -2.05 4.16 -2.05 C 3.26 -2.05 2.64 -2.4 2.3 -3.25 L 0.37 -2.12 C 0.99 -0.54 2.45 0.19 4.1 0.19 Z" stroke-linecap="round" />
</g>
</g>
</g>
<g transform="matrix(1.8052505739823428 0.6571928679833168 -0.657192867983317 1.805250573982343 615.5846282215736 696.8539094304522)" id="text-logo-3"  >
<g style=""  paint-order="stroke"   >
		<g transform="matrix(1 0 0 1 0 0)" id="b3c12351-9e29-41ee-be62-44a05442d664-path-0"  >
<path style="stroke: rgb(255,255,255); stroke-width: 0; stroke-dasharray: none; stroke-linecap: butt; stroke-dashoffset: 0; stroke-linejoin: miter; stroke-miterlimit: 4; fill: rgb(255,255,255); fill-rule: nonzero; opacity: 1;"  paint-order="stroke"  transform=" translate(-3.8400000000000003, 4.71)" d="M 3.15 -2.16 L 3.15 -3.73 L 6.43 -3.73 L 6.43 -5.89 L 3.15 -5.89 L 3.15 -7.24 L 6.76 -7.24 L 6.76 -9.42 L 0.85 -9.42 L 0.85 0 L 6.83 0 L 6.83 -2.16 Z" stroke-linecap="round" />
</g>
</g>
</g>
<g transform="matrix(1.9211378024455668 0.007851407920534759 -0.007851407920534759 1.9211378024455668 639.1499069285188 700.9894782514965)" id="text-logo-4"  >
<g style=""  paint-order="stroke"   >
		<g transform="matrix(1 0 0 1 0 0)" id="cf7f4923-dd35-40a9-85d4-66e9456356e3-path-0"  >
<path style="stroke: rgb(255,255,255); stroke-width: 0; stroke-dasharray: none; stroke-linecap: butt; stroke-dashoffset: 0; stroke-linejoin: miter; stroke-miterlimit: 4; fill: rgb(255,255,255); fill-rule: nonzero; opacity: 1;"  paint-order="stroke"  transform=" translate(-4.68, 4.71)" d="M 6.21 -9.42 L 6.21 -4.63 L 3.15 -9.42 L 0.85 -9.42 L 0.85 0 L 3.15 0 L 3.15 -5.38 L 6.6 0 L 8.51 0 L 8.51 -9.42 Z" stroke-linecap="round" />
</g>
</g>
</g>
<g transform="matrix(1.8124294824434084 -0.6371275160920566 0.6371275160920569 1.8124294824434086 662.9340817633575 696.9814481266402)" id="text-logo-5"  >
<g style=""  paint-order="stroke"   >
		<g transform="matrix(1 0 0 1 0 0)" id="692f3cbf-e455-4cae-815d-30f0a5f5f38c-path-0"  >
<path style="stroke: rgb(255,255,255); stroke-width: 0; stroke-dasharray: none; stroke-linecap: butt; stroke-dashoffset: 0; stroke-linejoin: miter; stroke-miterlimit: 4; fill: rgb(255,255,255); fill-rule: nonzero; opacity: 1;"  paint-order="stroke"  transform=" translate(-3.685, 4.71)" d="M 7.2 -7.24 L 7.2 -9.42 L 0.17 -9.42 L 0.17 -7.24 L 2.55 -7.24 L 2.55 0 L 4.83 0 L 4.83 -7.24 Z" stroke-linecap="round" />
</g>
</g>
</g>
<g transform="matrix(1.5464270140928251 -1.139910343261989 1.139910343261989 1.5464270140928253 681.7998599097697 686.9328674955468)" id="text-logo-6"  >
<g style=""  paint-order="stroke"   >
		<g transform="matrix(1 0 0 1 0 0)" id="955c3d36-7c11-4f04-8fff-ab9a269cf58d-path-0"  >
<path style="stroke: rgb(255,255,255); stroke-width: 0; stroke-dasharray: none; stroke-linecap: butt; stroke-dashoffset: 0; stroke-linejoin: miter; stroke-miterlimit: 4; fill: rgb(255,255,255); fill-rule: nonzero; opacity: 1;"  paint-order="stroke"  transform=" translate(-3.8400000000000003, 4.71)" d="M 3.15 -2.16 L 3.15 -3.73 L 6.43 -3.73 L 6.43 -5.89 L 3.15 -5.89 L 3.15 -7.24 L 6.76 -7.24 L 6.76 -9.42 L 0.85 -9.42 L 0.85 0 L 6.83 0 L 6.83 -2.16 Z" stroke-linecap="round" />
</g>
</g>
</g>
<g transform="matrix(1.068786556412475 -1.5964107859268803 1.5964107859268806 1.068786556412475 698.4254036226913 669.5502145792514)" id="text-logo-7"  >
<g style=""  paint-order="stroke"   >
		<g transform="matrix(1 0 0 1 0 -4.4409e-16)" id="56b3c8bc-7077-4289-8421-fab7202906ae-path-0"  >
<path style="stroke: rgb(255,255,255); stroke-width: 0; stroke-dasharray: none; stroke-linecap: butt; stroke-dashoffset: 0; stroke-linejoin: miter; stroke-miterlimit: 4; fill: rgb(255,255,255); fill-rule: nonzero; opacity: 1;"  paint-order="stroke"  transform=" translate(-5.010000000000001, 4.66)" d="M 0.44 -4.67 C 0.44 -1.98 2.64 0.19 5.3 0.19 C 7.08 0.19 8.76 -0.83 9.58 -2.4 L 7.56 -3.5 C 7.15 -2.66 6.24 -2.11 5.3 -2.11 C 3.9 -2.11 2.73 -3.28 2.73 -4.67 C 2.73 -6.07 3.91 -7.23 5.3 -7.23 C 6.24 -7.23 7.09 -6.73 7.55 -5.91 L 9.56 -6.98 C 8.72 -8.55 7.08 -9.51 5.3 -9.51 C 2.63 -9.51 0.44 -7.37 0.44 -4.67 Z" stroke-linecap="round" />
</g>
</g>
</g>
<g transform="matrix(0.38489003623171353 -1.8822039636025811 1.8822039636025811 0.38489003623171353 708.8499224051488 644.3265659671458)" id="text-logo-8"  >
<g style=""  paint-order="stroke"   >
		<g transform="matrix(1 0 0 1 0 0)" id="574b2900-5278-470b-be56-0034d6db71d4-path-0"  >
<path style="stroke: rgb(255,255,255); stroke-width: 0; stroke-dasharray: none; stroke-linecap: butt; stroke-dashoffset: 0; stroke-linejoin: miter; stroke-miterlimit: 4; fill: rgb(255,255,255); fill-rule: nonzero; opacity: 1;"  paint-order="stroke"  transform=" translate(-5.03, 4.71)" d="M 6.93 -9.42 L 6.93 -5.91 L 3.15 -5.91 L 3.15 -9.42 L 0.85 -9.42 L 0.85 0 L 3.15 0 L 3.15 -3.73 L 6.93 -3.73 L 6.93 0 L 9.21 0 L 9.21 -9.42 Z" stroke-linecap="round" />
</g>
</g>
</g>
<g transform="matrix(1.9752721643210127 0 0 1.9752721643210127 639.4746774796673 382.8227728864414)" id="logo-logo"  >
<g style=""  paint-order="stroke"   >
		<g transform="matrix(0.3649877772059864 0 0 -0.3649877772059864 0 -9.01519809698786)"  >
<path style="stroke: none; stroke-width: 1; stroke-dasharray: none; stroke-linecap: butt; stroke-dashoffset: 0; stroke-linejoin: miter; stroke-miterlimit: 4; fill: rgb(252,175,14); fill-rule: nonzero; opacity: 1;"  paint-order="stroke"  transform=" translate(-1618.865, -1532.705)" d="M 2011.12 1498.75 C 2011.12 1560.16 1961.1799999999998 1610.1 1899.77 1610.1 C 1894.18 1610.1 1888.68 1609.6899999999998 1883.27 1608.87 C 1886.45 1611.4499999999998 1889.56 1614.1399999999999 1892.48 1617.07 C 1935.89 1660.49 1935.89 1731.1499999999999 1892.48 1774.57 C 1871.45 1795.61 1843.48 1807.1899999999998 1813.75 1807.1899999999998 C 1784 1807.1899999999998 1756.04 1795.61 1735.02 1774.57 C 1730.97 1770.55 1727.3 1766.23 1724 1761.72 C 1724.47 1765.9 1724.94 1770.08 1724.94 1774.34 C 1724.94 1835.72 1674.98 1885.6799999999998 1613.5700000000002 1885.6999999999998 C 1583.8400000000001 1885.6999999999998 1555.8700000000001 1874.12 1534.8400000000001 1853.09 C 1513.8000000000002 1832.05 1502.2200000000003 1804.1 1502.2200000000003 1774.36 C 1502.2200000000003 1768.6299999999999 1502.6700000000003 1763.01 1503.5200000000002 1757.4799999999998 C 1500.9000000000003 1760.7399999999998 1498.2600000000002 1764.0399999999997 1495.2500000000002 1767.0699999999997 C 1474.2100000000003 1788.1099999999997 1446.2700000000002 1799.6899999999996 1416.5200000000002 1799.6899999999996 C 1386.7600000000002 1799.6899999999996 1358.7900000000002 1788.1099999999997 1337.7600000000002 1767.0699999999997 C 1316.7300000000002 1746.0399999999997 1305.1400000000003 1718.0699999999997 1305.1400000000003 1688.3199999999997 C 1305.1400000000003 1658.5899999999997 1316.7300000000002 1630.6299999999997 1337.7600000000002 1609.5899999999997 C 1341.8300000000002 1605.5299999999997 1346.2300000000002 1601.9099999999996 1350.7900000000002 1598.5699999999997 C 1346.5400000000002 1599.0599999999997 1342.3200000000002 1599.5099999999998 1337.9800000000002 1599.5099999999998 C 1276.5800000000002 1599.5099999999998 1226.6100000000001 1549.5499999999997 1226.6100000000001 1488.1599999999999 C 1226.6100000000001 1426.7599999999998 1276.5800000000002 1376.8 1337.98 1376.8 C 1343.55 1376.8 1349.07 1377.21 1354.48 1378.03 C 1351.29 1375.45 1348.2 1372.77 1345.25 1369.84 C 1324.21 1348.81 1312.63 1320.84 1312.63 1291.09 C 1312.63 1261.33 1324.21 1233.3799999999999 1345.25 1212.34 C 1366.29 1191.29 1394.25 1179.75 1424 1179.7099999999998 C 1453.73 1179.7099999999998 1481.7 1191.2899999999997 1502.71 1212.3199999999997 C 1534.45 1244.0799999999997 1544.04 1291.4299999999996 1527.19 1332.9699999999998 L 1523.77 1341.3899999999999 L 1453.6399999999999 1271.2499999999998 L 1414.61 1281.6999999999998 L 1404.1499999999999 1320.7199999999998 L 1474.32 1390.8999999999999 L 1465.8799999999999 1394.32 C 1452.55 1399.71 1438.4699999999998 1402.46 1423.9999999999998 1402.46 C 1418.2399999999998 1402.46 1412.5599999999997 1401.88 1406.9499999999998 1401.02 C 1421.3199999999997 1412.4 1433.1 1427.15 1440.5699999999997 1444.79 L 1444.1199999999997 1453.1399999999999 L 1344.9099999999996 1453.1399999999999 L 1324.7099999999996 1488.1599999999999 L 1344.9099999999996 1523.1399999999999 L 1444.1199999999997 1523.1399999999999 L 1440.5699999999997 1531.52 C 1432.5599999999997 1550.49 1419.5699999999997 1566.1299999999999 1403.7499999999998 1577.75 C 1407.9499999999998 1577.29 1412.1999999999998 1576.97 1416.5199999999998 1576.97 C 1430.9599999999998 1576.97 1445.0599999999997 1579.73 1458.3799999999997 1585.14 L 1466.8099999999997 1588.5400000000002 L 1396.6599999999996 1658.67 L 1407.1299999999997 1697.71 L 1446.1599999999996 1708.16 L 1516.2999999999997 1638.0300000000002 L 1519.7299999999998 1646.4500000000003 C 1527.4799999999998 1665.6300000000003 1529.3799999999999 1686.0000000000002 1526.3199999999997 1705.5300000000002 C 1537.7199999999998 1691.0900000000001 1552.4999999999998 1679.2400000000002 1570.2299999999998 1671.7600000000002 L 1578.5899999999997 1668.2200000000003 L 1578.5899999999997 1767.4000000000003 L 1613.5699999999997 1787.6200000000003 L 1648.5499999999997 1767.4000000000003 L 1648.5499999999997 1668.2000000000003 L 1656.9299999999998 1671.7600000000002 C 1676.0099999999998 1679.8200000000002 1691.7399999999998 1692.8900000000003 1703.4099999999999 1708.8900000000003 C 1701.2399999999998 1690.6100000000004 1703.32 1671.7600000000002 1710.54 1653.9500000000003 L 1713.96 1645.5100000000002 L 1784.1100000000001 1715.6400000000003 L 1823.14 1705.2000000000003 L 1833.5800000000002 1666.1900000000003 L 1763.43 1596.0400000000002 L 1771.8600000000001 1592.6000000000001 C 1785.21 1587.19 1799.2900000000002 1584.47 1813.7500000000002 1584.47 C 1819.5400000000002 1584.47 1825.2200000000003 1585.04 1830.8300000000002 1585.9 C 1816.44 1574.51 1804.65 1559.77 1797.16 1542.1100000000001 L 1793.63 1533.7500000000002 L 1892.8200000000002 1533.7500000000002 L 1913.0300000000002 1498.7500000000002 L 1892.8400000000001 1463.7700000000002 L 1793.6100000000001 1463.7500000000002 L 1797.16 1455.3900000000003 C 1805.19 1436.4300000000003 1818.18 1420.7600000000002 1834.02 1409.1200000000003 C 1829.8 1409.6100000000004 1825.56 1409.9200000000003 1821.24 1409.9200000000003 C 1806.8 1409.9200000000003 1792.7 1407.1900000000003 1779.35 1401.7600000000002 L 1770.9399999999998 1398.3600000000001 L 1841.0699999999997 1328.2400000000002 L 1830.6299999999997 1289.1800000000003 L 1791.5999999999997 1278.7500000000002 L 1721.4299999999996 1348.8900000000003 L 1718.0299999999995 1340.4700000000003 C 1701.1999999999996 1298.8900000000003 1710.7899999999995 1251.5400000000002 1742.5099999999995 1219.8400000000001 C 1763.5199999999995 1198.8100000000002 1791.4799999999996 1187.2300000000002 1821.2399999999996 1187.2300000000002 C 1850.9699999999996 1187.2300000000002 1878.9599999999996 1198.8100000000002 1899.9999999999995 1219.8400000000001 C 1921.0099999999995 1240.88 1932.6099999999994 1268.8500000000001 1932.6099999999994 1298.5700000000002 C 1932.6099999999994 1328.3200000000002 1921.0299999999995 1356.2700000000002 1899.9999999999995 1377.3000000000002 C 1895.8999999999996 1381.39 1891.4999999999995 1385.0000000000002 1886.9399999999996 1388.3400000000001 C 1891.1899999999996 1387.8500000000001 1895.4399999999996 1387.38 1899.7999999999995 1387.38 C 1961.1599999999994 1387.38 2011.1199999999994 1437.3400000000001 2011.1199999999994 1498.75" stroke-linecap="round" />
</g>
		<g transform="matrix(0.3649877772059864 0 0 -0.3649877772059864 0.003649877771977117 47.28781641480762)"  >
<path style="stroke: none; stroke-width: 1; stroke-dasharray: none; stroke-linecap: butt; stroke-dashoffset: 0; stroke-linejoin: miter; stroke-miterlimit: 4; fill: rgb(255,255,255); fill-rule: nonzero; opacity: 1;"  paint-order="stroke"  transform=" translate(-1618.8749999999998, -1378.445)" d="M 1559.45 1366.02 L 1559.45 1130.31 L 1678.31 1130.31 L 1678.31 1366.02 C 1727.77 1389.08 1759.52 1438.69 1759.52 1493.44 C 1759.52 1550.0800000000002 1725.81 1600.96 1673.66 1623.03 L 1665.27 1626.58 L 1665.27 1501.35 L 1618.8899999999999 1474.55 L 1572.4799999999998 1501.35 L 1572.4799999999998 1626.58 L 1564.0999999999997 1623.03 C 1511.9399999999996 1600.96 1478.2299999999996 1550.08 1478.2299999999996 1493.44 C 1478.2299999999996 1438.69 1509.9799999999996 1389.0800000000002 1559.4499999999996 1366.02" stroke-linecap="round" />
</g>
</g>
</g>
</svg>